<svg width="73" height="74" viewBox="0 0 73 74" fill="none" xmlns="http://www.w3.org/2000/svg">
<path fill-rule="evenodd" clip-rule="evenodd" d="M0 0H73V74H0V0Z" fill="#e9e9e9"/>
<path fill-rule="evenodd" clip-rule="evenodd" d="M2.14697 31.1789V36.0353H16.1606C17.7895 36.0353 19.8706 34.5085 19.8706 31.9828C19.8706 30.9669 20.2538 30.3043 19.076 28.9607L17.2835 26.8077C16.2565 25.8364 17.4062 25.8364 18.269 25.8364H24.1857V36.0353H28.878V25.8364H35.2022V21.4688H14.7234C12.2318 21.4688 11.0135 23.8939 11.082 25.1565C11.151 26.4192 11.3801 28.0078 13.4505 29.9162C15.3392 31.6564 12.5155 31.1789 12.2318 31.1789H2.14697ZM45.5779 21.4688H38.0081L33.7646 36.0356H38.4872L39.2533 33.996H44.2357L44.9753 36.0356H49.6014L45.5779 21.4688ZM40.3077 30.499L41.9365 25.1565L43.4699 30.499H40.3077ZM64.5497 31.1789C62.7292 31.1789 62.7292 30.499 62.7292 30.499C64.2892 30.499 65.6722 28.1951 65.6722 25.8364C65.6722 23.4777 63.3999 21.4688 61.5787 21.4688H51.3946V36.0356H56.5694V31.1792C56.5694 31.1792 58.7728 33.8017 59.9226 34.8701C61.0727 35.9385 61.1682 36.0356 62.7288 36.0356H70.852V31.1792C70.8527 31.1789 66.3702 31.1789 64.5497 31.1789ZM59.8544 27.7794H56.5701V25.1565H59.8544C61.3602 25.1565 61.6207 27.7794 59.8544 27.7794ZM2.14697 37.8807H7.44106L8.78248 42.7379L10.0281 37.8807H15.5858L17.023 42.7379L18.4606 37.8807H23.0597L18.8435 52.451H14.6276L12.7802 45.5542L10.6988 52.451H6.38709L2.14697 37.8807ZM33.9248 37.9648H26.355L22.1118 52.5313H26.834L27.6006 50.492H32.5833L33.323 52.5313H37.9494L33.9248 37.9648ZM28.6549 46.9946L30.2838 41.6522L31.8168 46.9946H28.6549ZM64.6452 42.2522C63.7836 42.2522 62.844 42.3543 63.8714 43.3252L65.6643 45.4785C66.8417 46.8222 66.8228 47.3823 66.8228 48.3989C66.8228 50.9242 64.3581 52.451 62.7292 52.451L51.4071 52.5282C49.8472 52.5282 49.7517 52.4315 48.6016 51.363C47.4522 50.2946 45.248 47.6718 45.248 47.6718V52.5282H40.074V37.9617H50.2581C52.0786 37.9617 54.3516 39.9711 54.3516 42.3294C54.3516 44.6885 52.9685 46.9919 51.4079 46.9919C51.4079 46.9919 52.0941 47.6914 53.2439 47.6914C54.394 47.6914 58.8212 47.696 58.8212 47.696C59.1045 47.696 61.9279 48.1736 60.0396 46.4333C57.9691 44.5249 57.74 42.9371 57.6711 41.6744C57.6022 40.4118 58.6792 37.8811 61.1697 37.8811H70.8535V42.2526H64.6452V42.2522ZM48.5326 44.2719H45.2476V41.6491H48.5326C50.0388 41.6491 50.299 44.2719 48.5326 44.2719Z" fill="black"/>
</svg>
